<?xml version="1.0" encoding="utf-8"?>
<svg width="219px" height="100px" viewbox="0 0 219 100" version="1.1" xmlns:xlink="http://www.w3.org/1999/xlink" xmlns="http://www.w3.org/2000/svg">
  <path d="M3.28467 99.635L5.29197 66.7883L14.3248 66.7883L16.4234 99.635L20.073 99.635L12.5 0.0912409L7.39051 0.0912409L0 99.635L3.28467 99.635ZM14.0511 64.0511L5.65693 64.0511L8.0292 29.6533C8.21168 28.011 8.36375 26.0493 8.4854 23.7682C8.60706 21.4872 8.74392 19.1454 8.89598 16.7427C9.04805 14.34 9.18491 11.9982 9.30657 9.71715C9.42822 7.43613 9.58029 5.47445 9.76277 3.83212L9.76277 3.83212L9.94526 3.83212C10.0061 5.47445 10.0973 7.43613 10.219 9.71715C10.3406 11.9982 10.4927 14.34 10.6752 16.7427C10.8577 19.1454 11.0401 21.4872 11.2226 23.7682C11.4051 26.0493 11.5876 28.011 11.7701 29.6533L11.7701 29.6533L14.0511 64.0511ZM43.6131 99.635C45.6813 99.635 47.3844 99.0876 48.7226 97.9927C50.0608 96.8978 50.7299 95.1034 50.7299 92.6095L50.7299 92.6095L50.7299 54.8358C50.7299 52.4635 50.1369 50.882 48.9507 50.0912C47.7646 49.3005 46.2895 48.8443 44.5256 48.7226L44.5256 48.7226L44.5256 48.5401C45.9854 48.4185 47.3084 47.9319 48.4945 47.0803C49.6807 46.2287 50.2737 44.8601 50.2737 42.9744L50.2737 42.9744L50.2737 7.11679C50.2737 4.56204 49.5742 2.75243 48.1752 1.68796C46.7762 0.623479 44.9209 0.0912409 42.6095 0.0912409L42.6095 0.0912409L34.7628 0.0912409L34.7628 99.635L43.6131 99.635ZM42.3358 47.4453L38.4124 47.4453L38.4124 2.82847L42.1533 2.82847C43.9173 2.82847 45.1034 3.14781 45.7117 3.7865C46.32 4.42518 46.6241 5.47445 46.6241 6.93431L46.6241 6.93431L46.6241 42.792C46.6241 43.9477 46.3352 45.0122 45.7573 45.9854C45.1794 46.9586 44.0389 47.4453 42.3358 47.4453L42.3358 47.4453ZM42.1533 96.8978L38.4124 96.8978L38.4124 50.1825L42.3358 50.1825C45.4988 50.1825 47.0803 51.764 47.0803 54.927L47.0803 54.927L47.0803 92.8832C47.0803 94.2822 46.7153 95.3011 45.9854 95.9398C45.2555 96.5785 43.9781 96.8978 42.1533 96.8978L42.1533 96.8978ZM75.7299 100C78.2847 100 80.2464 99.3917 81.615 98.1752C82.9836 96.9586 83.6679 95.1946 83.6679 92.8832L83.6679 92.8832L83.6679 7.11679C83.6679 4.80535 82.9836 3.04136 81.615 1.82482C80.2464 0.608273 78.2847 0 75.7299 0C73.1752 0 71.1983 0.608273 69.7993 1.82482C68.4002 3.04136 67.7007 4.80535 67.7007 7.11679L67.7007 7.11679L67.7007 92.8832C67.7007 95.1946 68.4002 96.9586 69.7993 98.1752C71.1983 99.3917 73.1752 100 75.7299 100ZM75.7299 97.2628C74.3917 97.2628 73.3272 96.8826 72.5365 96.1223C71.7457 95.3619 71.3504 94.2518 71.3504 92.792L71.3504 92.792L71.3504 7.20803C71.3504 5.74818 71.7457 4.63808 72.5365 3.87774C73.3272 3.1174 74.3917 2.73723 75.7299 2.73723C77.0681 2.73723 78.1174 3.1174 78.8777 3.87774C79.6381 4.63808 80.0182 5.74818 80.0182 7.20803L80.0182 7.20803L80.0182 92.792C80.0182 94.2518 79.6381 95.3619 78.8777 96.1223C78.1174 96.8826 77.0681 97.2628 75.7299 97.2628ZM108.668 100C111.223 100 113.184 99.3917 114.553 98.1752C115.922 96.9586 116.606 95.1946 116.606 92.8832L116.606 92.8832L116.606 0.0912409L112.956 0.0912409L112.956 92.792C112.956 94.2518 112.576 95.3619 111.816 96.1223C111.055 96.8826 110.006 97.2628 108.668 97.2628C107.33 97.2628 106.265 96.8826 105.474 96.1223C104.684 95.3619 104.288 94.2518 104.288 92.792L104.288 92.792L104.288 0.0912409L100.639 0.0912409L100.639 92.8832C100.639 95.1946 101.338 96.9586 102.737 98.1752C104.136 99.3917 106.113 100 108.668 100ZM140.055 99.635L140.055 2.91971L146.533 2.91971L146.533 0.182482L129.927 0.182482L129.927 2.91971L136.405 2.91971L136.405 99.635L140.055 99.635ZM179.015 100C181.569 100 183.531 99.3917 184.9 98.1752C186.268 96.9586 186.953 95.1946 186.953 92.8832L186.953 92.8832L186.953 0.0912409L183.303 0.0912409L183.303 92.792C183.303 94.2518 182.923 95.3619 182.162 96.1223C181.402 96.8826 180.353 97.2628 179.015 97.2628C177.676 97.2628 176.612 96.8826 175.821 96.1223C175.03 95.3619 174.635 94.2518 174.635 92.792L174.635 92.792L174.635 0.0912409L170.985 0.0912409L170.985 92.8832C170.985 95.1946 171.685 96.9586 173.084 98.1752C174.483 99.3917 176.46 100 179.015 100ZM210.401 100C213.321 100 215.359 99.4069 216.515 98.2208C217.67 97.0347 218.248 95.3771 218.248 93.2482L218.248 93.2482L218.248 62.4088C218.248 60.5839 217.99 58.8656 217.473 57.2536C216.956 55.6417 216.302 54.045 215.511 52.4635L215.511 52.4635L208.029 36.5876C207.056 34.4586 206.569 32.3601 206.569 30.292L206.569 30.292L206.569 6.66058C206.569 5.56569 206.904 4.63808 207.573 3.87774C208.242 3.1174 209.215 2.73723 210.493 2.73723C213.108 2.73723 214.416 3.98418 214.416 6.4781L214.416 6.4781L214.416 25.0912L217.701 25.0912L217.701 6.11314C217.701 3.98418 217.077 2.43309 215.83 1.45985C214.583 0.486618 212.713 0 210.219 0C207.908 0 206.068 0.608273 204.699 1.82482C203.33 3.04136 202.646 4.71411 202.646 6.84307L202.646 6.84307L202.646 29.8358C202.646 31.1131 202.844 32.5578 203.239 34.1697C203.634 35.7816 204.227 37.3175 205.018 38.7774L205.018 38.7774L212.682 54.8358C213.352 56.3564 213.838 57.7099 214.142 58.896C214.446 60.0821 214.599 61.5572 214.599 63.3212L214.599 63.3212L214.599 93.0657C214.599 94.5864 214.249 95.6661 213.549 96.3047C212.85 96.9434 211.709 97.2628 210.128 97.2628C208.425 97.2628 207.299 96.8674 206.752 96.0766C206.204 95.2859 205.931 94.3431 205.931 93.2482L205.931 93.2482L205.931 72.2628L202.646 72.2628L202.646 92.9745C202.646 95.2251 203.224 96.9586 204.38 98.1752C205.535 99.3917 207.543 100 210.401 100Z" id="ABOUTUS" fill="#303030" stroke="none" />
</svg>