<?xml version="1.0" encoding="UTF-8"?>
<svg width="455px" height="209px" viewBox="0 0 455 209" version="1.1" xmlns="http://www.w3.org/2000/svg" xmlns:xlink="http://www.w3.org/1999/xlink">
    <title>ABOUTUS</title>
    <g id="Page-1" stroke="none" stroke-width="1" fill="none" fill-rule="evenodd">
        <g id="aboutus" transform="translate(-100.000000, -140.000000)" fill="#303030" fill-rule="nonzero">
            <path d="M106.84,347.48 L111.02,279.08 L129.83,279.08 L134.2,347.48 L141.8,347.48 L126.03,140.19 L115.39,140.19 L100,347.48 L106.84,347.48 Z M129.26,273.38 L111.78,273.38 L116.72,201.75 C117.1,198.33 117.416667,194.245 117.67,189.495 C117.923333,184.745 118.208333,179.868333 118.525,174.865 C118.841667,169.861667 119.126667,164.985 119.38,160.235 C119.633333,155.485 119.95,151.4 120.33,147.98 L120.33,147.98 L120.71,147.98 C120.836667,151.4 121.026667,155.485 121.28,160.235 C121.533333,164.985 121.85,169.861667 122.23,174.865 C122.61,179.868333 122.99,184.745 123.37,189.495 C123.75,194.245 124.13,198.33 124.51,201.75 L124.51,201.75 L129.26,273.38 Z M190.82,347.48 C195.126667,347.48 198.673333,346.34 201.46,344.06 C204.246667,341.78 205.64,338.043333 205.64,332.85 L205.64,332.85 L205.64,254.19 C205.64,249.25 204.405,245.956667 201.935,244.31 C199.465,242.663333 196.393333,241.713333 192.72,241.46 L192.72,241.46 L192.72,241.08 C195.76,240.826667 198.515,239.813333 200.985,238.04 C203.455,236.266667 204.69,233.416667 204.69,229.49 L204.69,229.49 L204.69,154.82 C204.69,149.5 203.233333,145.731667 200.32,143.515 C197.406667,141.298333 193.543333,140.19 188.73,140.19 L188.73,140.19 L172.39,140.19 L172.39,347.48 L190.82,347.48 Z M188.16,238.8 L179.99,238.8 L179.99,145.89 L187.78,145.89 C191.453333,145.89 193.923333,146.555 195.19,147.885 C196.456667,149.215 197.09,151.4 197.09,154.44 L197.09,154.44 L197.09,229.11 C197.09,231.516667 196.488333,233.733333 195.285,235.76 C194.081667,237.786667 191.706667,238.8 188.16,238.8 L188.16,238.8 Z M187.78,341.78 L179.99,341.78 L179.99,244.5 L188.16,244.5 C194.746667,244.5 198.04,247.793333 198.04,254.38 L198.04,254.38 L198.04,333.42 C198.04,336.333333 197.28,338.455 195.76,339.785 C194.24,341.115 191.58,341.78 187.78,341.78 L187.78,341.78 Z M257.7,348.24 C263.02,348.24 267.105,346.973333 269.955,344.44 C272.805,341.906667 274.23,338.233333 274.23,333.42 L274.23,333.42 L274.23,154.82 C274.23,150.006667 272.805,146.333333 269.955,143.8 C267.105,141.266667 263.02,140 257.7,140 C252.38,140 248.263333,141.266667 245.35,143.8 C242.436667,146.333333 240.98,150.006667 240.98,154.82 L240.98,154.82 L240.98,333.42 C240.98,338.233333 242.436667,341.906667 245.35,344.44 C248.263333,346.973333 252.38,348.24 257.7,348.24 Z M257.7,342.54 C254.913333,342.54 252.696667,341.748333 251.05,340.165 C249.403333,338.581667 248.58,336.27 248.58,333.23 L248.58,333.23 L248.58,155.01 C248.58,151.97 249.403333,149.658333 251.05,148.075 C252.696667,146.491667 254.913333,145.7 257.7,145.7 C260.486667,145.7 262.671667,146.491667 264.255,148.075 C265.838333,149.658333 266.63,151.97 266.63,155.01 L266.63,155.01 L266.63,333.23 C266.63,336.27 265.838333,338.581667 264.255,340.165 C262.671667,341.748333 260.486667,342.54 257.7,342.54 Z M326.29,348.24 C331.61,348.24 335.695,346.973333 338.545,344.44 C341.395,341.906667 342.82,338.233333 342.82,333.42 L342.82,333.42 L342.82,140.19 L335.22,140.19 L335.22,333.23 C335.22,336.27 334.428333,338.581667 332.845,340.165 C331.261667,341.748333 329.076667,342.54 326.29,342.54 C323.503333,342.54 321.286667,341.748333 319.64,340.165 C317.993333,338.581667 317.17,336.27 317.17,333.23 L317.17,333.23 L317.17,140.19 L309.57,140.19 L309.57,333.42 C309.57,338.233333 311.026667,341.906667 313.94,344.44 C316.853333,346.973333 320.97,348.24 326.29,348.24 Z M391.65,347.48 L391.65,146.08 L405.14,146.08 L405.14,140.38 L370.56,140.38 L370.56,146.08 L384.05,146.08 L384.05,347.48 L391.65,347.48 Z M472.78,348.24 C478.1,348.24 482.185,346.973333 485.035,344.44 C487.885,341.906667 489.31,338.233333 489.31,333.42 L489.31,333.42 L489.31,140.19 L481.71,140.19 L481.71,333.23 C481.71,336.27 480.918333,338.581667 479.335,340.165 C477.751667,341.748333 475.566667,342.54 472.78,342.54 C469.993333,342.54 467.776667,341.748333 466.13,340.165 C464.483333,338.581667 463.66,336.27 463.66,333.23 L463.66,333.23 L463.66,140.19 L456.06,140.19 L456.06,333.42 C456.06,338.233333 457.516667,341.906667 460.43,344.44 C463.343333,346.973333 467.46,348.24 472.78,348.24 Z M538.14,348.24 C544.22,348.24 548.463333,347.005 550.87,344.535 C553.276667,342.065 554.48,338.613333 554.48,334.18 L554.48,334.18 L554.48,269.96 C554.48,266.16 553.941667,262.581667 552.865,259.225 C551.788333,255.868333 550.426667,252.543333 548.78,249.25 L548.78,249.25 L533.2,216.19 C531.173333,211.756667 530.16,207.386667 530.16,203.08 L530.16,203.08 L530.16,153.87 C530.16,151.59 530.856667,149.658333 532.25,148.075 C533.643333,146.491667 535.67,145.7 538.33,145.7 C543.776667,145.7 546.5,148.296667 546.5,153.49 L546.5,153.49 L546.5,192.25 L553.34,192.25 L553.34,152.73 C553.34,148.296667 552.041667,145.066667 549.445,143.04 C546.848333,141.013333 542.953333,140 537.76,140 C532.946667,140 529.115,141.266667 526.265,143.8 C523.415,146.333333 521.99,149.816667 521.99,154.25 L521.99,154.25 L521.99,202.13 C521.99,204.79 522.401667,207.798333 523.225,211.155 C524.048333,214.511667 525.283333,217.71 526.93,220.75 L526.93,220.75 L542.89,254.19 C544.283333,257.356667 545.296667,260.175 545.93,262.645 C546.563333,265.115 546.88,268.186667 546.88,271.86 L546.88,271.86 L546.88,333.8 C546.88,336.966667 546.151667,339.215 544.695,340.545 C543.238333,341.875 540.863333,342.54 537.57,342.54 C534.023333,342.54 531.68,341.716667 530.54,340.07 C529.4,338.423333 528.83,336.46 528.83,334.18 L528.83,334.18 L528.83,290.48 L521.99,290.48 L521.99,333.61 C521.99,338.296667 523.193333,341.906667 525.6,344.44 C528.006667,346.973333 532.186667,348.24 538.14,348.24 Z" id="ABOUTUS"></path>
        </g>
    </g>
</svg>