<?xml version="1.0" encoding="utf-8"?>
<svg width="9px" height="5px" viewbox="0 0 9 5" version="1.1" xmlns:xlink="http://www.w3.org/1999/xlink" xmlns="http://www.w3.org/2000/svg">
  <path d="M8.48801 0.515421L8.0585 0.0859387C8.00126 0.028586 7.93534 0 7.8608 0C7.78645 0 7.72055 0.028586 7.66332 0.0859387L4.28688 3.46219L0.910601 0.0860289C0.853339 0.0286763 0.78744 9.02717e-05 0.712996 9.02717e-05C0.638522 9.02717e-05 0.572624 0.0286763 0.515391 0.0860289L0.0859387 0.515542C0.028586 0.572774 0 0.638672 0 0.713147C0 0.787561 0.0286763 0.853459 0.0859387 0.910691L4.08928 4.91412C4.14651 4.97138 4.21244 5 4.28688 5C4.36133 5 4.42714 4.97138 4.48434 4.91412L8.48801 0.910691C8.54524 0.853429 8.57368 0.78753 8.57368 0.713147C8.57368 0.638672 8.54524 0.572774 8.48801 0.515421Z" transform="matrix(-1 1.7484555E-07 1.7484555E-07 1 8.5703125 0)" id="Path-Copy-7" fill="#AAAAAA" stroke="none" />
</svg>