<?xml version="1.0" encoding="UTF-8"?>
<svg width="120px" height="179px" viewBox="0 0 120 179" version="1.1" xmlns="http://www.w3.org/2000/svg" xmlns:xlink="http://www.w3.org/1999/xlink">
    <title>Group 14</title>
    <g id="Page-1" stroke="none" stroke-width="1" fill="none" fill-rule="evenodd">
        <g id="membership" transform="translate(-526.000000, -1267.000000)">
            <g id="Group-14" transform="translate(526.000000, 1267.000000)">
                <rect id="Rectangle-Copy-5" fill="#FFFFFF" opacity="0" x="0" y="0" width="120" height="179"></rect>
                <path d="M77.32,168.72 L77.32,162.12 L49.6,162.12 L72.92,73.02 C74.0933333,68.4733333 74.8633333,64.4033333 75.23,60.81 C75.5966667,57.2166667 75.78,53.5133333 75.78,49.7 L75.78,49.7 L75.78,25.72 C75.78,21.32 74.6433333,17.4333333 72.37,14.06 C70.0966667,10.6866667 65.9533333,9 59.94,9 C54.22,9 50.1133333,10.5033333 47.62,13.51 C45.1266667,16.5166667 43.88,20.8066667 43.88,26.38 L43.88,26.38 L43.88,47.72 L51.8,47.72 L51.8,27.48 C51.8,23.2266667 52.35,20.1833333 53.45,18.35 C54.55,16.5166667 56.64,15.6 59.72,15.6 C65.1466667,15.6 67.86,18.8266667 67.86,25.28 L67.86,25.28 L67.86,50.58 C67.86,53.5133333 67.7133333,56.3733333 67.42,59.16 C67.1266667,61.9466667 66.6133333,64.8066667 65.88,67.74 L65.88,67.74 L43,158.6 L43,168.72 L77.32,168.72 Z" id="2" fill="#303030" fill-rule="nonzero"></path>
            </g>
        </g>
    </g>
</svg>