<?xml version="1.0" encoding="UTF-8"?>
<svg width="120px" height="179px" viewBox="0 0 120 179" version="1.1" xmlns="http://www.w3.org/2000/svg" xmlns:xlink="http://www.w3.org/1999/xlink">
    <title>Group 15</title>
    <g id="Page-1" stroke="none" stroke-width="1" fill="none" fill-rule="evenodd">
        <g id="membership" transform="translate(-955.000000, -1267.000000)">
            <g id="Group-15" transform="translate(955.000000, 1267.000000)">
                <rect id="Rectangle-Copy-6" fill="#FFFFFF" opacity="0" x="0" y="0" width="120" height="179"></rect>
                <path d="M60.16,169.6 C65.7333333,169.6 69.9866667,168.28 72.92,165.64 C75.8533333,163 77.32,159.26 77.32,154.42 L77.32,154.42 L77.32,102.28 C77.32,99.3466667 76.99,96.9633333 76.33,95.13 C75.67,93.2966667 74.79,91.83 73.69,90.73 C72.59,89.63 71.4166667,88.86 70.17,88.42 C68.9233333,87.98 67.64,87.6866667 66.32,87.54 L66.32,87.54 L66.32,87.1 C68.6666667,86.3666667 70.9033333,85.1566667 73.03,83.47 C75.1566667,81.7833333 76.22,78.52 76.22,73.68 L76.22,73.68 L76.22,24.18 C76.22,19.1933333 74.9,15.4166667 72.26,12.85 C69.62,10.2833333 65.3666667,9 59.5,9 C48.94,9 43.66,13.9866667 43.66,23.96 L43.66,23.96 L43.66,47.28 L51.58,47.28 L51.58,25.28 C51.58,22.2 52.1666667,19.8166667 53.34,18.13 C54.5133333,16.4433333 56.5666667,15.6 59.5,15.6 C62.8733333,15.6 65.1833333,16.4433333 66.43,18.13 C67.6766667,19.8166667 68.3,22.2 68.3,25.28 L68.3,25.28 L68.3,71.26 C68.3,76.8333333 67.3833333,80.39 65.55,81.93 C63.7166667,83.47 61.1133333,84.24 57.74,84.24 L57.74,84.24 L55.32,84.24 L55.32,90.84 L58.18,90.84 C62.4333333,90.84 65.3666667,91.5733333 66.98,93.04 C68.5933333,94.5066667 69.4,97.5866667 69.4,102.28 L69.4,102.28 L69.4,153.32 C69.4,159.773333 66.2466667,163 59.94,163 C54.22,163 51.2133333,159.773333 50.92,153.32 L50.92,153.32 L50.92,128.68 L43,128.68 L43,154.42 C43,159.26 44.4666667,163 47.4,165.64 C50.3333333,168.28 54.5866667,169.6 60.16,169.6 Z" id="3" fill="#303030" fill-rule="nonzero"></path>
            </g>
        </g>
    </g>
</svg>