<?xml version="1.0" encoding="UTF-8"?>
<svg width="120px" height="179px" viewBox="0 0 120 179" version="1.1" xmlns="http://www.w3.org/2000/svg" xmlns:xlink="http://www.w3.org/1999/xlink">
    <title>Group 13</title>
    <g id="Page-1" stroke="none" stroke-width="1" fill="none" fill-rule="evenodd">
        <g id="membership" transform="translate(-526.000000, -1537.000000)">
            <g id="Group-13" transform="translate(526.000000, 1537.000000)">
                <rect id="Rectangle-Copy-2" fill="#FFFFFF" opacity="0" x="0" y="0" width="120" height="179"></rect>
                <path d="M59.72,169.72 C66.32,169.72 70.9033333,168.033333 73.47,164.66 C76.0366667,161.286667 77.32,156.813333 77.32,151.24 L77.32,151.24 L77.32,79.52 C77.32,74.68 76.22,70.7566667 74.02,67.75 C71.82,64.7433333 68.1533333,63.24 63.02,63.24 C59.2066667,63.24 56.4566667,64.1566667 54.77,65.99 C53.0833333,67.8233333 51.8733333,69.7666667 51.14,71.82 L51.14,71.82 L50.7,71.38 L52.9,16.6 L74.46,16.6 L74.46,10 L44.76,10 L43,99.32 L50.92,100.2 C51.0666667,94.1866667 51.2866667,89.2 51.58,85.24 C51.8733333,81.28 52.4233333,78.1633333 53.23,75.89 C54.0366667,73.6166667 55.1366667,72.04 56.53,71.16 C57.9233333,70.28 59.7933333,69.84 62.14,69.84 C64.6333333,69.84 66.4666667,70.7566667 67.64,72.59 C68.8133333,74.4233333 69.4,76.9533333 69.4,80.18 L69.4,80.18 L69.4,150.8 C69.4,155.786667 68.52,159.086667 66.76,160.7 C65,162.313333 62.8,163.12 60.16,163.12 C57.52,163.12 55.32,162.276667 53.56,160.59 C51.8,158.903333 50.92,156.153333 50.92,152.34 L50.92,152.34 L50.92,128.58 L43,128.58 L43,149.92 C43,156.813333 44.43,161.836667 47.29,164.99 C50.15,168.143333 54.2933333,169.72 59.72,169.72 Z" id="5" fill="#303030" fill-rule="nonzero"></path>
            </g>
        </g>
    </g>
</svg>