<?xml version="1.0" encoding="UTF-8"?>
<svg width="120px" height="179px" viewBox="0 0 120 179" version="1.1" xmlns="http://www.w3.org/2000/svg" xmlns:xlink="http://www.w3.org/1999/xlink">
    <title>Group 16</title>
    <g id="Page-1" stroke="none" stroke-width="1" fill="none" fill-rule="evenodd">
        <g id="membership" transform="translate(-955.000000, -1537.000000)">
            <g id="Group-16" transform="translate(955.000000, 1537.000000)">
                <rect id="Rectangle-Copy-3" fill="#FFFFFF" opacity="0" x="0" y="0" width="120" height="179"></rect>
                <path d="M59.94,169.6 C65.3666667,169.6 69.62,168.28 72.7,165.64 C75.78,163 77.32,159.26 77.32,154.42 L77.32,154.42 L77.32,80.94 C77.32,75.9533333 76.33,71.9933333 74.35,69.06 C72.37,66.1266667 68.74,64.66 63.46,64.66 C56.7133333,64.66 52.68,67.08 51.36,71.92 L51.36,71.92 L50.92,71.92 L50.92,25.28 C50.92,18.8266667 53.9266667,15.6 59.94,15.6 C65.8066667,15.6 68.74,18.8266667 68.74,25.28 L68.74,25.28 L68.74,51.24 L76.66,51.24 L76.66,24.18 C76.66,19.34 75.23,15.6 72.37,12.96 C69.51,10.32 65.3666667,9 59.94,9 C54.3666667,9 50.15,10.32 47.29,12.96 C44.43,15.6 43,19.34 43,24.18 L43,24.18 L43,154.42 C43,159.26 44.43,163 47.29,165.64 C50.15,168.28 54.3666667,169.6 59.94,169.6 Z M61.04,163 C54.2933333,163 50.92,159.773333 50.92,153.32 L50.92,153.32 L50.92,83.58 C50.92,79.9133333 51.91,76.9433333 53.89,74.67 C55.87,72.3966667 58.1066667,71.26 60.6,71.26 C66.4666667,71.26 69.4,74.6333333 69.4,81.38 L69.4,81.38 L69.4,153.32 C69.4,159.773333 66.6133333,163 61.04,163 Z" id="6" fill="#303030" fill-rule="nonzero"></path>
            </g>
        </g>
    </g>
</svg>