<?xml version="1.0" encoding="UTF-8"?>
<svg width="371px" height="209px" viewBox="0 0 371 209" version="1.1" xmlns="http://www.w3.org/2000/svg" xmlns:xlink="http://www.w3.org/1999/xlink">
    <title>JOINUS</title>
    <g id="Page-1" stroke="none" stroke-width="1" fill="none" fill-rule="evenodd">
        <g id="membership" transform="translate(-100.000000, -140.000000)" fill="#303030" fill-rule="nonzero">
            <path d="M114.25,348.24 C118.43,348.24 121.85,347.005 124.51,344.535 C127.17,342.065 128.5,338.613333 128.5,334.18 L128.5,334.18 L128.5,140.19 L120.9,140.19 L120.9,333.99 C120.9,336.65 120.456667,338.74 119.57,340.26 C118.683333,341.78 116.91,342.54 114.25,342.54 C111.716667,342.54 109.975,341.78 109.025,340.26 C108.075,338.74 107.6,336.65 107.6,333.99 L107.6,333.99 L107.6,295.42 L100,295.42 L100,334.18 C100,338.613333 101.33,342.065 103.99,344.535 C106.65,347.005 110.07,348.24 114.25,348.24 Z M180.56,348.24 C185.88,348.24 189.965,346.973333 192.815,344.44 C195.665,341.906667 197.09,338.233333 197.09,333.42 L197.09,333.42 L197.09,154.82 C197.09,150.006667 195.665,146.333333 192.815,143.8 C189.965,141.266667 185.88,140 180.56,140 C175.24,140 171.123333,141.266667 168.21,143.8 C165.296667,146.333333 163.84,150.006667 163.84,154.82 L163.84,154.82 L163.84,333.42 C163.84,338.233333 165.296667,341.906667 168.21,344.44 C171.123333,346.973333 175.24,348.24 180.56,348.24 Z M180.56,342.54 C177.773333,342.54 175.556667,341.748333 173.91,340.165 C172.263333,338.581667 171.44,336.27 171.44,333.23 L171.44,333.23 L171.44,155.01 C171.44,151.97 172.263333,149.658333 173.91,148.075 C175.556667,146.491667 177.773333,145.7 180.56,145.7 C183.346667,145.7 185.531667,146.491667 187.115,148.075 C188.698333,149.658333 189.49,151.97 189.49,155.01 L189.49,155.01 L189.49,333.23 C189.49,336.27 188.698333,338.581667 187.115,340.165 C185.531667,341.748333 183.346667,342.54 180.56,342.54 Z M240.6,347.48 L240.6,140.19 L233,140.19 L233,347.48 L240.6,347.48 Z M284.11,347.48 L284.11,203.08 C284.11,201.94 284.046667,200.071667 283.92,197.475 C283.793333,194.878333 283.666667,191.775 283.54,188.165 C283.413333,184.555 283.286667,180.596667 283.16,176.29 C283.033333,171.983333 282.906667,167.613333 282.78,163.18 L282.78,163.18 L283.16,163.18 C283.666667,167.74 284.173333,173.313333 284.68,179.9 L284.68,179.9 L286.2,199.66 C286.706667,206.246667 287.15,212.168333 287.53,217.425 C287.91,222.681667 288.226667,226.26 288.48,228.16 L288.48,228.16 L301.78,347.48 L313.18,347.48 L313.18,140.38 L305.58,140.38 L305.580281,277.024852 C305.584965,278.945464 305.648205,282.037179 305.77,286.3 C305.896667,290.733333 306.055,295.705 306.245,301.215 C306.435,306.725 306.625,312.425 306.815,318.315 C307.005,324.205 307.226667,329.493333 307.48,334.18 L307.48,334.18 L307.1,334.18 C306.466667,330 305.865,325.25 305.295,319.93 L305.295,319.93 L303.585,303.97 C303.015,298.65 302.508333,293.646667 302.065,288.96 C301.621667,284.273333 301.21,280.6 300.83,277.94 L300.83,277.94 L287.91,140.38 L276.51,140.38 L276.51,347.48 L284.11,347.48 Z M388.42,348.24 C393.74,348.24 397.825,346.973333 400.675,344.44 C403.525,341.906667 404.95,338.233333 404.95,333.42 L404.95,333.42 L404.95,140.19 L397.35,140.19 L397.35,333.23 C397.35,336.27 396.558333,338.581667 394.975,340.165 C393.391667,341.748333 391.206667,342.54 388.42,342.54 C385.633333,342.54 383.416667,341.748333 381.77,340.165 C380.123333,338.581667 379.3,336.27 379.3,333.23 L379.3,333.23 L379.3,140.19 L371.7,140.19 L371.7,333.42 C371.7,338.233333 373.156667,341.906667 376.07,344.44 C378.983333,346.973333 383.1,348.24 388.42,348.24 Z M453.78,348.24 C459.86,348.24 464.103333,347.005 466.51,344.535 C468.916667,342.065 470.12,338.613333 470.12,334.18 L470.12,334.18 L470.12,269.96 C470.12,266.16 469.581667,262.581667 468.505,259.225 C467.428333,255.868333 466.066667,252.543333 464.42,249.25 L464.42,249.25 L448.84,216.19 C446.813333,211.756667 445.8,207.386667 445.8,203.08 L445.8,203.08 L445.8,153.87 C445.8,151.59 446.496667,149.658333 447.89,148.075 C449.283333,146.491667 451.31,145.7 453.97,145.7 C459.416667,145.7 462.14,148.296667 462.14,153.49 L462.14,153.49 L462.14,192.25 L468.98,192.25 L468.98,152.73 C468.98,148.296667 467.681667,145.066667 465.085,143.04 C462.488333,141.013333 458.593333,140 453.4,140 C448.586667,140 444.755,141.266667 441.905,143.8 C439.055,146.333333 437.63,149.816667 437.63,154.25 L437.63,154.25 L437.63,202.13 C437.63,204.79 438.041667,207.798333 438.865,211.155 C439.688333,214.511667 440.923333,217.71 442.57,220.75 L442.57,220.75 L458.53,254.19 C459.923333,257.356667 460.936667,260.175 461.57,262.645 C462.203333,265.115 462.52,268.186667 462.52,271.86 L462.52,271.86 L462.52,333.8 C462.52,336.966667 461.791667,339.215 460.335,340.545 C458.878333,341.875 456.503333,342.54 453.21,342.54 C449.663333,342.54 447.32,341.716667 446.18,340.07 C445.04,338.423333 444.47,336.46 444.47,334.18 L444.47,334.18 L444.47,290.48 L437.63,290.48 L437.63,333.61 C437.63,338.296667 438.833333,341.906667 441.24,344.44 C443.646667,346.973333 447.826667,348.24 453.78,348.24 Z" id="JOINUS"></path>
        </g>
    </g>
</svg>