<?xml version="1.0" encoding="utf-8"?>
<svg width="178px" height="100px" viewbox="0 0 178 100" version="1.1" xmlns:xlink="http://www.w3.org/1999/xlink" xmlns="http://www.w3.org/2000/svg">
  <path d="M6.84307 100C8.85036 100 10.4927 99.4069 11.7701 98.2208C13.0474 97.0347 13.6861 95.3771 13.6861 93.2482L13.6861 93.2482L13.6861 0.0912409L10.0365 0.0912409L10.0365 93.1569C10.0365 94.4343 9.8236 95.438 9.39781 96.1679C8.97202 96.8978 8.12044 97.2628 6.84307 97.2628C5.62652 97.2628 4.79015 96.8978 4.33394 96.1679C3.87774 95.438 3.64964 94.4343 3.64964 93.1569L3.64964 93.1569L3.64964 74.635L0 74.635L0 93.2482C0 95.3771 0.638686 97.0347 1.91606 98.2208C3.19343 99.4069 4.83577 100 6.84307 100ZM38.6861 100C41.2409 100 43.2026 99.3917 44.5712 98.1752C45.9398 96.9586 46.6241 95.1946 46.6241 92.8832L46.6241 92.8832L46.6241 7.11679C46.6241 4.80535 45.9398 3.04136 44.5712 1.82482C43.2026 0.608273 41.2409 0 38.6861 0C36.1314 0 34.1545 0.608273 32.7555 1.82482C31.3564 3.04136 30.6569 4.80535 30.6569 7.11679L30.6569 7.11679L30.6569 92.8832C30.6569 95.1946 31.3564 96.9586 32.7555 98.1752C34.1545 99.3917 36.1314 100 38.6861 100ZM38.6861 97.2628C37.3479 97.2628 36.2835 96.8826 35.4927 96.1223C34.7019 95.3619 34.3066 94.2518 34.3066 92.792L34.3066 92.792L34.3066 7.20803C34.3066 5.74818 34.7019 4.63808 35.4927 3.87774C36.2835 3.1174 37.3479 2.73723 38.6861 2.73723C40.0243 2.73723 41.0736 3.1174 41.8339 3.87774C42.5943 4.63808 42.9744 5.74818 42.9744 7.20803L42.9744 7.20803L42.9744 92.792C42.9744 94.2518 42.5943 95.3619 41.8339 96.1223C41.0736 96.8826 40.0243 97.2628 38.6861 97.2628ZM67.5182 99.635L67.5182 0.0912409L63.8686 0.0912409L63.8686 99.635L67.5182 99.635ZM88.4124 99.635L88.4124 30.292C88.4124 29.7445 88.382 28.8473 88.3212 27.6004C88.2603 26.3534 88.1995 24.8631 88.1387 23.1296C88.0779 21.396 88.017 19.4951 87.9562 17.427C87.8954 15.3589 87.8345 13.2603 87.7737 11.1314L87.7737 11.1314L87.9562 11.1314C88.1995 13.3212 88.4428 15.9976 88.6861 19.1606L88.6861 19.1606L89.4161 28.6496C89.6594 31.8127 89.8723 34.6563 90.0547 37.1807C90.2372 39.705 90.3893 41.4234 90.5109 42.3358L90.5109 42.3358L96.8978 99.635L102.372 99.635L102.372 0.182482L98.7226 0.182482L98.7228 65.8014C98.725 66.7237 98.7554 68.2084 98.8139 70.2555C98.8747 72.3844 98.9507 74.7719 99.042 77.4179C99.1332 80.0639 99.2244 82.8011 99.3157 85.6296C99.4069 88.458 99.5134 90.9976 99.635 93.2482L99.635 93.2482L99.4526 93.2482C99.1484 91.2409 98.8595 88.9599 98.5858 86.4051L98.5858 86.4051L97.7646 78.7409C97.4909 76.1861 97.2476 73.7835 97.0347 71.5328C96.8218 69.2822 96.6241 67.5182 96.4416 66.2409L96.4416 66.2409L90.2372 0.182482L84.7628 0.182482L84.7628 99.635L88.4124 99.635ZM138.504 100C141.058 100 143.02 99.3917 144.389 98.1752C145.757 96.9586 146.442 95.1946 146.442 92.8832L146.442 92.8832L146.442 0.0912409L142.792 0.0912409L142.792 92.792C142.792 94.2518 142.412 95.3619 141.651 96.1223C140.891 96.8826 139.842 97.2628 138.504 97.2628C137.165 97.2628 136.101 96.8826 135.31 96.1223C134.519 95.3619 134.124 94.2518 134.124 92.792L134.124 92.792L134.124 0.0912409L130.474 0.0912409L130.474 92.8832C130.474 95.1946 131.174 96.9586 132.573 98.1752C133.972 99.3917 135.949 100 138.504 100ZM169.891 100C172.81 100 174.848 99.4069 176.004 98.2208C177.159 97.0347 177.737 95.3771 177.737 93.2482L177.737 93.2482L177.737 62.4088C177.737 60.5839 177.479 58.8656 176.962 57.2536C176.445 55.6417 175.791 54.045 175 52.4635L175 52.4635L167.518 36.5876C166.545 34.4586 166.058 32.3601 166.058 30.292L166.058 30.292L166.058 6.66058C166.058 5.56569 166.393 4.63808 167.062 3.87774C167.731 3.1174 168.704 2.73723 169.982 2.73723C172.597 2.73723 173.905 3.98418 173.905 6.4781L173.905 6.4781L173.905 25.0912L177.19 25.0912L177.19 6.11314C177.19 3.98418 176.566 2.43309 175.319 1.45985C174.072 0.486618 172.202 0 169.708 0C167.397 0 165.557 0.608273 164.188 1.82482C162.819 3.04136 162.135 4.71411 162.135 6.84307L162.135 6.84307L162.135 29.8358C162.135 31.1131 162.333 32.5578 162.728 34.1697C163.123 35.7816 163.717 37.3175 164.507 38.7774L164.507 38.7774L172.172 54.8358C172.841 56.3564 173.327 57.7099 173.631 58.896C173.936 60.0821 174.088 61.5572 174.088 63.3212L174.088 63.3212L174.088 93.0657C174.088 94.5864 173.738 95.6661 173.038 96.3047C172.339 96.9434 171.198 97.2628 169.617 97.2628C167.914 97.2628 166.788 96.8674 166.241 96.0766C165.693 95.2859 165.42 94.3431 165.42 93.2482L165.42 93.2482L165.42 72.2628L162.135 72.2628L162.135 92.9745C162.135 95.2251 162.713 96.9586 163.869 98.1752C165.024 99.3917 167.032 100 169.891 100Z" id="JOINUS" fill="#303030" stroke="none" />
</svg>