<?xml version="1.0" encoding="UTF-8"?>
<svg width="183px" height="72px" viewBox="0 0 183 72" version="1.1" xmlns="http://www.w3.org/2000/svg" xmlns:xlink="http://www.w3.org/1999/xlink">
    <title>logo</title>
    <g id="logo" stroke="none" stroke-width="1" fill="none" fill-rule="evenodd">
        <g id="Group-16" fill="#303030" transform="translate(0.915254, 0.000000)">
            <polygon id="Fill-5" points="145.254322 70.7863932 147.46153 70.7863932 147.46153 32.237641 145.254322 32.237641"></polygon>
            <path d="M159.581631,45.5827282 C158.989826,44.2992667 158.725987,43.1681214 158.725987,41.9168222 L158.725987,36.4109846 C158.725987,35.0364974 159.619497,34.148694 161.002208,34.148694 C162.555315,34.148694 163.27904,34.8338137 163.27904,36.3041812 L163.27904,42.5333692 L165.270658,42.5333692 L165.270658,35.6263436 C165.270658,33.1686513 163.863517,32.0241556 160.841584,32.0241556 C158.07555,32.0241556 156.358154,33.5679504 156.358154,36.0529504 L156.358154,41.6504205 C156.358154,43.2676427 156.893772,45.2744547 157.756134,46.8886427 L162.262161,55.3619162 C163.03902,57.1836427 163.385919,58.329959 163.385919,60.3082496 L163.385919,66.453694 C163.385919,68.1740786 162.63349,68.8755829 160.787839,68.8755829 C159.124188,68.8755829 158.349161,68.1394889 158.349161,66.5598906 L158.349161,60.0108991 L156.358154,60.0108991 L156.358154,66.8651299 C156.358154,69.6863179 157.816597,71.0001214 160.948463,71.0001214 C162.599899,71.0001214 163.77557,70.6530103 164.543879,69.9393692 C165.249282,69.2833778 165.592517,68.3294291 165.592517,67.025335 L165.592517,59.7754462 C165.592517,57.4646085 164.777792,55.5342581 163.979557,53.950412 L159.581631,45.5827282 Z" id="Fill-2"></path>
            <polygon id="Fill-7" points="133.961589 32.237641 131.754381 32.237641 131.754381 70.7863932 139.595038 70.7863932 139.595038 68.6618547 133.961589 68.6618547"></polygon>
            <path d="M117.46335,39.467565 C117.607484,37.767206 117.757115,36.0104111 117.970873,34.0988726 L118.022786,34.0988726 C118.078363,34.6814368 118.131497,35.2470094 118.184021,35.8004453 C118.476564,38.9129154 118.730021,41.601206 119.09341,44.848394 L120.430927,57.5428299 L115.563343,57.5428299 L116.954605,44.8490009 C117.168974,42.9320009 117.318605,41.1709581 117.46335,39.467565 L117.46335,39.467565 Z M119.62292,32.2377017 L116.478229,32.2377017 L112.172524,70.7530778 L112.16886,70.7864538 L114.161699,70.7864538 L115.341645,59.6679752 L120.59888,59.6679752 L121.829517,70.759753 L121.832571,70.7864538 L124.04039,70.7864538 L119.625974,32.2644026 L119.62292,32.2377017 Z" id="Fill-8"></path>
            <polygon id="Fill-9" points="102.517302 70.7863932 104.723899 70.7863932 104.723899 32.237641 102.517302 32.237641"></polygon>
            <polygon id="Fill-10" points="85.1914517 34.3621795 89.0000154 34.3621795 89.0000154 70.7863932 91.2078342 70.7863932 91.2078342 34.3621795 95.016398 34.3621795 95.016398 32.237641 85.1914517 32.237641"></polygon>
            <polygon id="Fill-11" points="52.5237953 51.9379564 57.4060369 51.9379564 57.4060369 49.8134179 52.5237953 49.8134179 52.5237953 34.3621188 57.727896 34.3621188 57.727896 32.2375803 50.317198 32.2375803 50.317198 70.7869393 58.1035 70.7869393 58.1035 68.6624009 52.5237953 68.6624009"></polygon>
            <path d="M35.2943195,45.5827282 C34.7025141,44.2998735 34.4386752,43.1687282 34.4386752,41.9168222 L34.4386752,36.4109846 C34.4386752,35.0364974 35.3321852,34.148694 36.7148966,34.148694 C38.268004,34.148694 38.9917289,34.8338137 38.9917289,36.3041812 L38.9917289,42.5333692 L40.983957,42.5333692 L40.983957,35.6263436 C40.983957,33.1686513 39.5762054,32.0241556 36.5542725,32.0241556 C33.7888497,32.0241556 32.070843,33.5679504 32.070843,36.0529504 L32.070843,41.6504205 C32.070843,43.2682496 32.6064604,45.2750615 33.4688228,46.8886427 L37.9748497,55.3619162 C38.7523195,57.1830359 39.0986081,58.3293521 39.0986081,60.3082496 L39.0986081,66.453694 C39.0986081,68.1740786 38.3461785,68.8755829 36.5005275,68.8755829 C34.8374872,68.8755829 34.0630711,68.1394889 34.0630711,66.5598906 L34.0630711,60.0108991 L32.070843,60.0108991 L32.070843,66.8651299 C32.070843,69.6863179 33.5292859,71.0001214 36.6611517,71.0001214 C38.3125879,71.0001214 39.4888698,70.6530103 40.2565678,69.9393692 C40.9631919,69.2833778 41.3058161,68.3294291 41.3058161,67.025335 L41.3058161,59.7754462 C41.3058161,57.4664291 40.4904805,55.5354718 39.6928564,53.950412 L35.2943195,45.5827282 Z" id="Fill-12"></path>
            <path d="M18.3170785,45.5827282 C17.7252732,44.2998735 17.4614342,43.169335 17.4614342,41.9168222 L17.4614342,36.4109846 C17.4614342,35.0364974 18.3549443,34.148694 19.7382664,34.148694 C21.2913738,34.148694 22.0144879,34.8338137 22.0144879,36.3041812 L22.0144879,42.5333692 L24.0067161,42.5333692 L24.0067161,35.6263436 C24.0067161,33.1686513 22.5995752,32.0241556 19.5770315,32.0241556 C16.8116087,32.0241556 15.093602,33.5679504 15.093602,36.0529504 L15.093602,41.6504205 C15.093602,43.2682496 15.6292195,45.2750615 16.4915819,46.8886427 L20.9976087,55.3619162 C21.7750785,57.1830359 22.1219779,58.3293521 22.1219779,60.3082496 L22.1219779,66.453694 C22.1219779,68.1740786 21.3689376,68.8755829 19.5232866,68.8755829 C17.8602463,68.8755829 17.0858302,68.1394889 17.0858302,66.5598906 L17.0858302,60.0108991 L15.093602,60.0108991 L15.093602,66.8651299 C15.093602,69.6863179 16.552045,71.0001214 19.6845215,71.0001214 C21.3359577,71.0001214 22.5116289,70.6530103 23.2793268,69.9393692 C23.985951,69.2833778 24.3285752,68.3294291 24.3285752,67.025335 L24.3285752,59.7754462 C24.3285752,57.4670359 23.5138503,55.5354718 22.7162262,53.950412 L18.3170785,45.5827282 Z" id="Fill-13"></path>
            <polygon id="Fill-14" points="2.20678054 34.5867701 7.08902215 34.5867701 7.08902215 32.4622316 2.20678054 32.4622316 2.20678054 2.50872735 7.41088121 2.50872735 7.41088121 0.469752991 0.000183221477 0.469752991 0.000183221477 70.7864538 7.78648523 70.7864538 7.78648523 68.6619154 2.20678054 68.6619154"></polygon>
            <path d="M75.9683268,46.0574573 C75.9683268,48.3616197 76.1539913,63.5944573 76.4166087,68.8769786 L76.324998,68.8769786 C75.6092128,64.4282521 69.3955617,32.5838419 69.3326557,32.2622179 L69.3277698,32.2379444 L66.053602,32.2379444 L66.053602,70.7866966 L68.2180584,70.7866966 L68.0879711,60.0869359 C68.0879711,58.8623376 67.9065819,39.2220385 67.7984812,34.1476624 L67.8919242,34.1476624 C68.4580785,38.0732949 74.7462396,70.4353376 74.8103671,70.7624231 L74.8146423,70.7866966 L78.0894208,70.7866966 L78.0894208,32.2379444 L75.8382396,32.2379444 L75.9683268,46.0574573 Z" id="Fill-15"></path>
            <polygon id="Fill-1" points="172 32 172 34.1494081 175.876803 34.1494081 175.876803 71 178.122576 71 178.122576 34.1494081 182 34.1494081 182 32"></polygon>
        </g>
    </g>
</svg>