<?xml version="1.0" encoding="utf-8"?>
<svg width="12px" height="12px" viewbox="0 0 12 12" version="1.1" xmlns:xlink="http://www.w3.org/1999/xlink" xmlns="http://www.w3.org/2000/svg">
  <path d="M11.2789 0.120283L11.8801 0.721401C11.9602 0.801673 12 0.893907 12 0.998143C12 1.10225 11.9602 1.19449 11.8801 1.27463L7.20601 5.94844L11.8801 10.6222C11.9602 10.7024 12 10.7946 12 10.8987C12 11.003 11.9602 11.0952 11.8801 11.1755L11.2789 11.7766C11.1988 11.8569 11.1066 11.8969 11.0022 11.8969C10.8982 11.8969 10.8059 11.8569 10.7258 11.7766L6.00006 7.05108L1.27451 11.7765C1.19436 11.8567 1.10213 11.8968 0.997933 11.8968C0.893696 11.8968 0.801463 11.8567 0.721359 11.7765L0.120283 11.1753C0.04001 11.0952 0 11.003 0 10.8987C0 10.7946 0.0401363 10.7023 0.120283 10.6222L4.79398 5.94844L0.120283 1.27463C0.0401363 1.19453 0 1.1023 0 0.998143C0 0.893907 0.04001 0.801673 0.120283 0.721569L0.721359 0.120409C0.801463 0.0401363 0.893696 0.000126347 0.997933 0.000126347C1.10213 0.000126347 1.19436 0.0401363 1.27451 0.120409L6.00006 4.8458L10.7258 0.120283C10.8059 0.04001 10.8982 0 11.0022 0C11.1066 0 11.1988 0.04001 11.2789 0.120283Z" id="Combined-Shape" fill="#303030" fill-rule="evenodd" stroke="none" />
</svg>