<?xml version="1.0" encoding="UTF-8"?>
<svg width="550px" height="213px" viewBox="0 0 550 213" version="1.1" xmlns="http://www.w3.org/2000/svg" xmlns:xlink="http://www.w3.org/1999/xlink">
    <title>THANKYOU</title>
    <g id="Page-1" stroke="none" stroke-width="1" fill="none" fill-rule="evenodd">
        <g id="apply-confirm" transform="translate(-445.000000, -442.000000)" fill="#4E4E4E" fill-rule="nonzero">
            <g id="Group" transform="translate(405.000000, 100.000000)">
                <path d="M61.5092345,553.604361 L61.5092345,348.20086 L75.2673936,348.20086 L75.2673936,342.387554 L40,342.387554 L40,348.20086 L53.758159,348.20086 L53.758159,553.604361 L61.5092345,553.604361 Z M114.36953,553.604361 L114.36953,450.902611 L132.778334,450.902611 L132.778334,553.604361 L140.52941,553.604361 L140.52941,342.193777 L132.778334,342.193777 L132.778334,445.089304 L114.36953,445.089304 L114.36953,342.193777 L106.618454,342.193777 L106.618454,553.604361 L114.36953,553.604361 Z M181.763092,553.604361 L186.026183,483.844682 L205.210095,483.844682 L209.666963,553.604361 L217.418039,553.604361 L201.334557,342.193777 L190.483051,342.193777 L174.787124,553.604361 L181.763092,553.604361 Z M204.628764,478.031375 L186.801291,478.031375 L191.83949,404.977489 C192.227043,401.489505 192.550005,397.323301 192.808374,392.478879 C193.066743,387.634457 193.357409,382.66085 193.68037,377.558059 C194.003332,372.455268 194.293997,367.481661 194.552366,362.637239 C194.810735,357.792816 195.133697,353.626613 195.521251,350.138629 L195.521251,350.138629 L195.908804,350.138629 C196.037989,353.626613 196.231766,357.792816 196.490135,362.637239 C196.748504,367.481661 197.071466,372.455268 197.459019,377.558059 C197.846573,382.66085 198.234127,387.634457 198.621681,392.478879 C199.009235,397.323301 199.396788,401.489505 199.784342,404.977489 L199.784342,404.977489 L204.628764,478.031375 Z M259.426828,553.604361 L259.42623,406.133272 C259.419452,404.957254 259.355059,403.118666 259.233051,400.617509 C259.103867,397.969224 258.974682,394.804202 258.845498,391.122441 C258.716313,387.44068 258.587129,383.403662 258.457944,379.011386 C258.328759,374.619109 258.199575,370.162241 258.07039,365.64078 L258.07039,365.64078 L258.457944,365.64078 C258.974682,370.291426 259.491421,375.975548 260.008159,382.693146 L260.008159,382.693146 L261.558374,402.845943 C262.075112,409.563542 262.527259,415.602921 262.914812,420.964082 C263.302366,426.325242 263.625328,429.974707 263.883697,431.912476 L263.883697,431.912476 L277.448079,553.604361 L289.074692,553.604361 L289.074692,342.387554 L281.323617,342.387554 L281.323617,481.519359 C281.323617,483.457128 281.388209,486.686743 281.517394,491.208204 C281.646578,495.729664 281.808059,500.800159 282.001836,506.419689 C282.195613,512.039219 282.38939,517.852526 282.583166,523.859609 C282.776943,529.866693 283.003016,535.260149 283.261386,540.039979 L283.261386,540.039979 L282.873832,540.039979 C282.227909,535.776888 281.614282,530.932466 281.032951,525.506713 C280.451621,520.08096 279.87029,514.655207 279.288959,509.229454 C278.707629,503.803701 278.19089,498.70091 277.738744,493.92108 C277.286598,489.14125 276.866748,485.394897 276.479194,482.68202 L276.479194,482.68202 L263.302366,342.387554 L251.675753,342.387554 L251.675753,553.604361 L259.426828,553.604361 Z M335.927904,553.604361 L335.927904,447.802181 L335.927904,342.193777 L328.176828,342.193777 L328.176828,553.604361 L335.927904,553.604361 Z M364.025553,553.604361 L342.903872,447.802181 L362.087784,342.193777 L355.111816,342.193777 L335.927904,447.802181 L356.274477,553.604361 L364.025553,553.604361 Z M434.478749,553.604361 L434.478749,467.7612 L450.562231,342.387554 L442.811156,342.387554 L430.796989,451.096388 L430.409435,451.096388 L418.395268,342.387554 L410.644192,342.387554 L426.727674,467.7612 L426.727674,553.604361 L434.478749,553.604361 Z M500.128319,554.379469 C505.554072,554.379469 509.720275,553.087623 512.626928,550.503931 C515.533582,547.920239 516.986908,544.173886 516.986908,539.264872 L516.986908,539.264872 L516.986908,357.114597 C516.986908,352.205583 515.533582,348.45923 512.626928,345.875538 C509.720275,343.291846 505.554072,342 500.128319,342 C494.702566,342 490.504067,343.291846 487.532822,345.875538 C484.561576,348.45923 483.075953,352.205583 483.075953,357.114597 L483.075953,357.114597 L483.075953,539.264872 C483.075953,544.173886 484.561576,547.920239 487.532822,550.503931 C490.504067,553.087623 494.702566,554.379469 500.128319,554.379469 Z M500.128319,548.566162 C497.286258,548.566162 495.025528,547.758759 493.346128,546.143951 C491.666728,544.529144 490.827029,542.171525 490.827029,539.071095 L490.827029,539.071095 L490.827029,357.308374 C490.827029,354.207944 491.666728,351.850325 493.346128,350.235518 C495.025528,348.62071 497.286258,347.813307 500.128319,347.813307 C502.97038,347.813307 505.198814,348.62071 506.813622,350.235518 C508.428429,351.850325 509.235833,354.207944 509.235833,357.308374 L509.235833,357.308374 L509.235833,539.071095 C509.235833,542.171525 508.428429,544.529144 506.813622,546.143951 C505.198814,547.758759 502.97038,548.566162 500.128319,548.566162 Z M573.141411,554.379469 C578.567164,554.379469 582.733367,553.087623 585.64002,550.503931 C588.546673,547.920239 590,544.173886 590,539.264872 L590,539.264872 L590,342.193777 L582.248924,342.193777 L582.248924,539.071095 C582.248924,542.171525 581.441521,544.529144 579.826713,546.143951 C578.211906,547.758759 575.983472,548.566162 573.141411,548.566162 C570.29935,548.566162 568.038619,547.758759 566.35922,546.143951 C564.67982,544.529144 563.84012,542.171525 563.84012,539.071095 L563.84012,539.071095 L563.84012,342.193777 L556.089045,342.193777 L556.089045,539.264872 C556.089045,544.173886 557.574667,547.920239 560.545913,550.503931 C563.517159,553.087623 567.715658,554.379469 573.141411,554.379469 Z" id="THANKYOU"></path>
            </g>
        </g>
    </g>
</svg>