<?xml version="1.0" encoding="utf-8"?>
<svg width="291px" height="100px" viewbox="0 0 291 100" version="1.1" xmlns:xlink="http://www.w3.org/1999/xlink" xmlns="http://www.w3.org/2000/svg">
  <path d="M10.1277 99.6349L10.1277 2.9196L16.6058 2.9196L16.6058 0.182373L0 0.182373L0 2.9196L6.4781 2.9196L6.4781 99.6349L10.1277 99.6349ZM33.5793 99.6351L33.5793 51.2774L42.2472 51.2774L42.2472 99.6351L45.8968 99.6351L45.8968 0.0913086L42.2472 0.0913086L42.2472 48.5402L33.5793 48.5402L33.5793 0.0913086L29.9297 0.0913086L29.9297 99.6351L33.5793 99.6351ZM76.0059 99.6349L76.0059 96.8977L66.5168 96.8977L66.5168 51.3685L74.8197 51.3685L74.8197 48.6313L66.5168 48.6313L66.5168 2.9196L75.3672 2.9196L75.3672 0.182373L62.8672 0.182373L62.8672 99.6349L76.0059 99.6349ZM114.967 99.6349L114.967 96.8977L105.478 96.8977L105.478 51.3685L113.781 51.3685L113.781 48.6313L105.478 48.6313L105.478 2.9196L114.328 2.9196L114.328 0.182373L101.828 0.182373L101.828 99.6349L114.967 99.6349ZM137.412 99.6349C140.149 99.6349 142.202 99.0875 143.57 97.9926C144.939 96.8977 145.623 95.1033 145.623 92.6094L145.623 92.6094L145.623 7.20792C145.623 4.714 144.939 2.9196 143.57 1.82471C142.202 0.729818 140.149 0.182373 137.412 0.182373L137.412 0.182373L129.656 0.182373L129.656 99.6349L137.412 99.6349ZM137.046 96.8978L133.305 96.8978L133.305 2.91968L137.046 2.91968C140.33 2.91968 141.973 4.25788 141.973 6.93428L141.973 6.93428L141.973 92.8832C141.973 95.5596 140.33 96.8978 137.046 96.8978L137.046 96.8978ZM166.517 99.6351L166.517 0.0913086L162.867 0.0913086L162.867 99.6351L166.517 99.6351ZM190.237 99.6349L190.237 2.9196L196.715 2.9196L196.715 0.182373L180.109 0.182373L180.109 2.9196L186.587 2.9196L186.587 99.6349L190.237 99.6349ZM218.068 100C220.623 100 222.585 99.3917 223.953 98.1752C225.322 96.9586 226.006 95.1946 226.006 92.8832L226.006 92.8832L226.006 7.11679C226.006 4.80535 225.322 3.04136 223.953 1.82482C222.585 0.608273 220.623 0 218.068 0C215.514 0 213.537 0.608273 212.138 1.82482C210.739 3.04136 210.039 4.80535 210.039 7.11679L210.039 7.11679L210.039 92.8832C210.039 95.1946 210.739 96.9586 212.138 98.1752C213.537 99.3917 215.514 100 218.068 100ZM218.067 97.2629C216.729 97.2629 215.664 96.8827 214.874 96.1223C214.083 95.362 213.688 94.2519 213.688 92.7921L213.688 92.7921L213.688 7.20811C213.688 5.74825 214.083 4.63816 214.874 3.87782C215.664 3.11748 216.729 2.7373 218.067 2.7373C219.405 2.7373 220.455 3.11748 221.215 3.87782C221.975 4.63816 222.355 5.74825 222.355 7.20811L222.355 7.20811L222.355 92.7921C222.355 94.2519 221.975 95.362 221.215 96.1223C220.455 96.8827 219.405 97.2629 218.067 97.2629ZM246.626 99.6349L246.717 50.1824L250.093 50.1824C251.918 50.1824 253.211 50.669 253.971 51.6422C254.731 52.6155 255.112 53.7104 255.112 54.9269L255.112 54.9269L255.02 99.6349L258.67 99.6349L258.761 54.9269C258.761 52.9196 258.229 51.4597 257.165 50.5473C256.1 49.6349 254.747 49.1179 253.104 48.9962L253.104 48.9962L253.104 48.8138C255.416 48.6313 256.936 47.947 257.666 46.7608C258.396 45.5747 258.761 44.0996 258.761 42.3357L258.761 42.3357L258.67 6.29551C258.67 4.22739 257.97 2.6915 256.571 1.68785C255.172 0.684198 253.378 0.182373 251.188 0.182373L251.188 0.182373L242.977 0.182373L242.977 99.6349L246.626 99.6349ZM250.275 47.4452L246.716 47.4452L246.625 2.91968L250.548 2.91968C253.529 2.91968 255.019 4.28829 255.019 7.02552L255.019 7.02552L255.11 43.0657C255.11 45.9854 253.498 47.4452 250.275 47.4452L250.275 47.4452ZM282.388 100C285.308 100 287.346 99.4069 288.501 98.2208C289.657 97.0347 290.235 95.3771 290.235 93.2482L290.235 93.2482L290.235 62.4088C290.235 60.5839 289.977 58.8656 289.459 57.2536C288.942 55.6417 288.289 54.045 287.498 52.4635L287.498 52.4635L280.016 36.5876C279.043 34.4586 278.556 32.3601 278.556 30.292L278.556 30.292L278.556 6.66058C278.556 5.56569 278.891 4.63808 279.56 3.87774C280.229 3.1174 281.202 2.73723 282.48 2.73723C285.095 2.73723 286.403 3.98418 286.403 6.4781L286.403 6.4781L286.403 25.0912L289.688 25.0912L289.688 6.11314C289.688 3.98418 289.064 2.43309 287.817 1.45985C286.57 0.486618 284.7 0 282.206 0C279.894 0 278.054 0.608273 276.686 1.82482C275.317 3.04136 274.633 4.71411 274.633 6.84307L274.633 6.84307L274.633 29.8358C274.633 31.1131 274.831 32.5578 275.226 34.1697C275.621 35.7816 276.214 37.3175 277.005 38.7774L277.005 38.7774L284.669 54.8358C285.338 56.3564 285.825 57.7099 286.129 58.896C286.433 60.0821 286.585 61.5572 286.585 63.3212L286.585 63.3212L286.585 93.0657C286.585 94.5864 286.236 95.6661 285.536 96.3047C284.837 96.9434 283.696 97.2628 282.115 97.2628C280.411 97.2628 279.286 96.8674 278.739 96.0766C278.191 95.2859 277.917 94.3431 277.917 93.2482L277.917 93.2482L277.917 72.2628L274.633 72.2628L274.633 92.9745C274.633 95.2251 275.211 96.9586 276.366 98.1752C277.522 99.3917 279.529 100 282.388 100Z" id="THEEDITORS" fill="#303030" stroke="none" />
</svg>