<?xml version="1.0" encoding="UTF-8"?>
<svg width="605px" height="209px" viewBox="0 0 605 209" version="1.1" xmlns="http://www.w3.org/2000/svg" xmlns:xlink="http://www.w3.org/1999/xlink">
    <title>THEEDITORS</title>
    <g id="Page-1" stroke="none" stroke-width="1" fill="none" fill-rule="evenodd">
        <g id="editors" transform="translate(-100.000000, -140.000000)" fill="#303030" fill-rule="nonzero">
            <path d="M121.09,347.48 L121.09,146.08 L134.58,146.08 L134.58,140.38 L100,140.38 L100,146.08 L113.49,146.08 L113.49,347.48 L121.09,347.48 Z M169.92,347.48 L169.92,246.78 L187.97,246.78 L187.97,347.48 L195.57,347.48 L195.57,140.19 L187.97,140.19 L187.97,241.08 L169.92,241.08 L169.92,140.19 L162.32,140.19 L162.32,347.48 L169.92,347.48 Z M258.27,347.48 L258.27,341.78 L238.51,341.78 L238.51,246.97 L255.8,246.97 L255.8,241.27 L238.51,241.27 L238.51,146.08 L256.94,146.08 L256.94,140.38 L230.91,140.38 L230.91,347.48 L258.27,347.48 Z M339.4,347.48 L339.4,341.78 L319.64,341.78 L319.64,246.97 L336.93,246.97 L336.93,241.27 L319.64,241.27 L319.64,146.08 L338.07,146.08 L338.07,140.38 L312.04,140.38 L312.04,347.48 L339.4,347.48 Z M386.14,347.48 C391.84,347.48 396.115,346.34 398.965,344.06 C401.815,341.78 403.24,338.043333 403.24,332.85 L403.24,332.85 L403.24,155.01 C403.24,149.816667 401.815,146.08 398.965,143.8 C396.115,141.52 391.84,140.38 386.14,140.38 L386.14,140.38 L369.99,140.38 L369.99,347.48 L386.14,347.48 Z M385.38,341.78 L377.59,341.78 L377.59,146.08 L385.38,146.08 C392.22,146.08 395.64,148.866667 395.64,154.44 L395.64,154.44 L395.64,333.42 C395.64,338.993333 392.22,341.78 385.38,341.78 L385.38,341.78 Z M446.75,347.48 L446.75,140.19 L439.15,140.19 L439.15,347.48 L446.75,347.48 Z M496.15,347.48 L496.15,146.08 L509.64,146.08 L509.64,140.38 L475.06,140.38 L475.06,146.08 L488.55,146.08 L488.55,347.48 L496.15,347.48 Z M554.1,348.24 C559.42,348.24 563.505,346.973333 566.355,344.44 C569.205,341.906667 570.63,338.233333 570.63,333.42 L570.63,333.42 L570.63,154.82 C570.63,150.006667 569.205,146.333333 566.355,143.8 C563.505,141.266667 559.42,140 554.1,140 C548.78,140 544.663333,141.266667 541.75,143.8 C538.836667,146.333333 537.38,150.006667 537.38,154.82 L537.38,154.82 L537.38,333.42 C537.38,338.233333 538.836667,341.906667 541.75,344.44 C544.663333,346.973333 548.78,348.24 554.1,348.24 Z M554.1,342.54 C551.313333,342.54 549.096667,341.748333 547.45,340.165 C545.803333,338.581667 544.98,336.27 544.98,333.23 L544.98,333.23 L544.98,155.01 C544.98,151.97 545.803333,149.658333 547.45,148.075 C549.096667,146.491667 551.313333,145.7 554.1,145.7 C556.886667,145.7 559.071667,146.491667 560.655,148.075 C562.238333,149.658333 563.03,151.97 563.03,155.01 L563.03,155.01 L563.03,333.23 C563.03,336.27 562.238333,338.581667 560.655,340.165 C559.071667,341.748333 556.886667,342.54 554.1,342.54 Z M613.57,347.48 L613.76,244.5 L620.79,244.5 C624.59,244.5 627.281667,245.513333 628.865,247.54 C630.448333,249.566667 631.24,251.846667 631.24,254.38 L631.24,254.38 L631.05,347.48 L638.65,347.48 L638.84,254.38 C638.84,250.2 637.731667,247.16 635.515,245.26 C633.298333,243.36 630.48,242.283333 627.06,242.03 L627.06,242.03 L627.06,241.65 C631.873333,241.27 635.04,239.845 636.56,237.375 C638.08,234.905 638.84,231.833333 638.84,228.16 L638.84,228.16 L638.65,153.11 C638.65,148.803333 637.193333,145.605 634.28,143.515 C631.366667,141.425 627.63,140.38 623.07,140.38 L623.07,140.38 L605.97,140.38 L605.97,347.48 L613.57,347.48 Z M621.17,238.8 L613.76,238.8 L613.57,146.08 L621.74,146.08 C627.946667,146.08 631.05,148.93 631.05,154.63 L631.05,154.63 L631.24,229.68 C631.24,235.76 627.883333,238.8 621.17,238.8 L621.17,238.8 Z M688.05,348.24 C694.13,348.24 698.373333,347.005 700.78,344.535 C703.186667,342.065 704.39,338.613333 704.39,334.18 L704.39,334.18 L704.39,269.96 C704.39,266.16 703.851667,262.581667 702.775,259.225 C701.698333,255.868333 700.336667,252.543333 698.69,249.25 L698.69,249.25 L683.11,216.19 C681.083333,211.756667 680.07,207.386667 680.07,203.08 L680.07,203.08 L680.07,153.87 C680.07,151.59 680.766667,149.658333 682.16,148.075 C683.553333,146.491667 685.58,145.7 688.24,145.7 C693.686667,145.7 696.41,148.296667 696.41,153.49 L696.41,153.49 L696.41,192.25 L703.25,192.25 L703.25,152.73 C703.25,148.296667 701.951667,145.066667 699.355,143.04 C696.758333,141.013333 692.863333,140 687.67,140 C682.856667,140 679.025,141.266667 676.175,143.8 C673.325,146.333333 671.9,149.816667 671.9,154.25 L671.9,154.25 L671.9,202.13 C671.9,204.79 672.311667,207.798333 673.135,211.155 C673.958333,214.511667 675.193333,217.71 676.84,220.75 L676.84,220.75 L692.8,254.19 C694.193333,257.356667 695.206667,260.175 695.84,262.645 C696.473333,265.115 696.79,268.186667 696.79,271.86 L696.79,271.86 L696.79,333.8 C696.79,336.966667 696.061667,339.215 694.605,340.545 C693.148333,341.875 690.773333,342.54 687.48,342.54 C683.933333,342.54 681.59,341.716667 680.45,340.07 C679.31,338.423333 678.74,336.46 678.74,334.18 L678.74,334.18 L678.74,290.48 L671.9,290.48 L671.9,333.61 C671.9,338.296667 673.103333,341.906667 675.51,344.44 C677.916667,346.973333 682.096667,348.24 688.05,348.24 Z" id="THEEDITORS"></path>
        </g>
    </g>
</svg>