<?xml version="1.0" encoding="UTF-8"?>
<svg width="33px" height="33px" viewBox="0 0 33 33" version="1.1" xmlns="http://www.w3.org/2000/svg" xmlns:xlink="http://www.w3.org/1999/xlink">
    <title>Group 11</title>
    <g id="Page-1" stroke="none" stroke-width="1" fill="none" fill-rule="evenodd">
        <g id="Group-11">
            <g id="Group-2-Copy-32" fill="#303030">
                <circle id="Oval" cx="16.5" cy="16.5" r="16.5"></circle>
            </g>
            <g id="2970729-copy" transform="translate(6.097826, 5.021739)" fill="#F4F4F4" fill-rule="nonzero">
                <path d="M6.34723166,17.6965863 C6.34723166,16.9700594 6.0380248,16.3146973 5.54479025,15.8540816 L5.54504246,15.8505927 C5.58972529,15.2332719 5.62591712,14.5824915 5.65340778,13.910988 C6.94441788,14.1542005 7.8592179,14.643694 8.37708475,15.3707672 C9.04484715,16.3082239 8.86699856,17.4092374 8.79659052,17.7243291 C8.56186906,18.774817 9.18393979,19.8390082 10.2377484,20.041447 C10.8468304,20.1584294 11.4546514,20.2168576 12.0584371,20.2168576 C14.1753019,20.2168576 16.2982197,19.4933573 18.0507282,18.0458522 C20.2558237,16.2244909 21.5209825,13.5692884 21.5216975,10.7610797 C21.5232103,5.4385687 16.8941028,1.09626359 12.0598663,1.26982464 C9.41861923,1.36469684 7.04492272,2.6658373 5.40830375,4.09804178 C5.3873705,3.90287492 5.36547045,3.71283628 5.34256157,3.52855639 C5.22251061,2.56251613 5.08068572,1.79672894 4.92103813,1.2524223 C4.81115956,0.877641389 4.55373939,0 3.82515285,0 C3.09656632,0 2.83914614,0.877641389 2.72926758,1.2524223 C2.56961999,1.79672894 2.42783713,2.56251613 2.30774414,3.52855639 C2.06646527,5.46992655 1.93359375,8.0384116 1.93359375,10.7608696 C1.93359375,12.5395236 1.99294667,14.2995143 2.10526325,15.8505507 L2.10551546,15.8540816 C1.61228091,16.3146973 1.30307405,16.9700594 1.30307405,17.6965863 L1.30307405,18.9996603 C1.30307405,19.6832278 0.706350204,20.2606997 3.58408955e-15,20.2606997 L3.58408955e-15,21.5217391 L2.56411345,21.5217391 C4.6469302,21.5217391 6.34723166,19.7955023 6.34723166,17.6965863 Z M12.1050955,2.53006539 C16.1677862,2.38428923 20.2620028,6.09338443 20.2607,10.7607014 C20.2600272,13.1916071 19.16183,15.4925416 17.2476983,17.0735908 C15.3560551,18.6360186 12.8876125,19.2663281 10.4756645,18.8030643 C10.1245911,18.7356407 9.9480456,18.3539661 10.0273229,17.9993198 C10.1543937,17.430507 10.3481314,15.9643385 9.40424338,14.6391542 C8.66367697,13.5994272 7.41713952,12.9275034 5.69443359,12.6375064 C5.70906165,12.0198913 5.71658585,10.7138748 5.71658585,10.6903354 C5.96227836,10.9766334 6.2877106,11.1827293 6.66001146,11.2824775 C7.66972571,11.5530545 8.70735097,10.9501095 8.97670898,9.94493504 C9.24665549,8.93744862 8.6466109,7.89822605 7.63916653,7.62827955 C6.88254288,7.42554645 6.12718028,7.71112984 5.67841839,8.26569293 C5.65038128,7.36997665 5.6072117,6.51078847 5.55004458,5.70767451 C6.9768266,4.20027004 9.38906887,2.6276278 12.1050955,2.53006539 Z M6.54059103,9.29213697 C6.63079738,8.95552352 6.97615404,8.75606912 7.31280953,8.84627548 C7.64862432,8.93627165 7.8486672,9.28267918 7.75867103,9.61849397 C7.66867485,9.9543508 7.32209918,10.1543516 6.9864105,10.0643555 C6.64983908,9.97419115 6.45038468,9.62883449 6.54059103,9.29213697 L6.54059103,9.29213697 Z M3.4970304,4.22204399 C3.60594217,3.20715948 3.72246221,2.51926248 3.82515285,2.05625085 C3.9278435,2.51926248 4.04436354,3.20715948 4.15327531,4.22204399 C4.34827403,6.0392438 4.45567255,8.36144786 4.45567255,10.7608696 C4.45567255,10.9714631 4.45478983,11.1817204 4.45310844,11.3913893 L3.19719727,11.3913893 C3.19551588,11.1817204 3.19463315,10.9714631 3.19463315,10.7608696 C3.19463315,8.36144786 3.30203167,6.0392438 3.4970304,4.22204399 L3.4970304,4.22204399 Z M3.21754203,12.6520083 L4.43276367,12.6520083 C4.41115786,13.5424282 4.37437755,14.408384 4.32330545,15.2241504 C4.16218665,15.1917417 3.99564538,15.1745075 3.82515285,15.1745075 C3.65466033,15.1745075 3.48811906,15.1917417 3.32700025,15.2241504 C3.27597019,14.408384 3.23918988,13.5424703 3.21754203,12.6520083 Z M2.56411345,18.9996603 L2.56411345,17.6965863 C2.56411345,17.0012492 3.12981573,16.4355469 3.82515285,16.4355469 C4.52048998,16.4355469 5.08619226,17.0012492 5.08619226,17.6965863 C5.08619226,19.1104216 3.9547877,20.2606997 2.56411345,20.2606997 L2.21707541,20.2606997 C2.44347401,19.8806645 2.56411345,19.4488426 2.56411345,18.9996603 Z" id="Shape"></path>
                <path d="M16.9262173,8.53164614 C17.6654386,7.79246688 17.6656067,6.59590863 16.9262173,5.85656123 C16.1887615,5.11906335 14.9886723,5.11902131 14.2511324,5.85656123 C13.5119111,6.59574049 13.511743,7.79229874 14.2511324,8.53164614 C14.9886303,9.26914402 16.1886774,9.26918606 16.9262173,8.53164614 L16.9262173,8.53164614 Z M15.1428133,6.74828422 C15.388674,6.50246561 15.7886337,6.50242357 16.0345363,6.74828422 C16.2809855,6.99473336 16.2809855,7.39351605 16.0345363,7.63996518 C15.7885916,7.88582583 15.388674,7.8857838 15.1428133,7.63996518 C14.8964063,7.39351605 14.8963642,6.99469132 15.1428133,6.74828422 Z" id="Shape"></path>
                <path d="M11.2059324,7.71571162 C12.2133768,7.44576512 12.8134634,6.40650051 12.5435169,5.39905613 C12.2734863,4.39161175 11.2342217,3.79156717 10.2268194,4.06151367 C9.219375,4.33146017 8.61933042,5.37072478 8.88927692,6.37821119 C9.15985394,7.38796748 10.196008,7.98628864 11.2059324,7.71571162 L11.2059324,7.71571162 Z M10.5532184,5.27955163 C10.8897478,5.18938731 11.2356509,5.39035496 11.3254789,5.72537109 C11.4154751,6.06118589 11.2154322,6.40763544 10.8796174,6.49758959 C10.543046,6.58775391 10.1976053,6.38842561 10.1073989,6.05177013 C10.0173607,5.71595533 10.2173616,5.36954781 10.5532184,5.27955163 L10.5532184,5.27955163 Z" id="Shape"></path>
                <path d="M11.500301,16.1227671 C11.7699113,17.1287402 12.808083,17.7306343 13.8170406,17.4602675 C14.824485,17.190321 15.4244875,16.1510564 15.154541,15.143612 C14.883964,14.1339818 13.8480201,13.5354505 12.8378435,13.8060695 C11.8303991,14.076016 11.2303545,15.1152807 11.500301,16.1227671 L11.500301,16.1227671 Z M13.1642846,15.0241075 C13.5014865,14.933733 13.8465069,15.1339861 13.936461,15.469927 C14.0264572,15.8057838 13.8264564,16.1521913 13.4906416,16.2421875 C13.1547847,16.3321837 12.8084192,16.1320988 12.7184231,15.796368 C12.6284269,15.4605112 12.8284277,15.1141037 13.1642846,15.0241075 Z" id="Shape"></path>
                <path d="M15.0670669,11.5768461 C14.7971204,12.5843325 15.397165,13.6235551 16.4046094,13.8935436 C17.413609,14.1639105 18.4504777,13.5665982 18.7212649,12.5560012 C18.9917998,11.5462449 18.3936468,10.5099227 17.3837644,10.2393457 C16.3740502,9.96864258 15.337728,10.5669217 15.0670669,11.5768461 Z M17.5031849,12.2296022 C17.4131046,12.5661315 17.0676219,12.76567 16.7310084,12.6754637 C16.3951936,12.5854675 16.1951928,12.23906 16.2851889,11.9032031 C16.3751431,11.5673043 16.7200794,11.3670092 17.0573654,11.4573837 C17.3931382,11.5473378 17.593181,11.8937453 17.5031849,12.2296022 Z" id="Shape"></path>
            </g>
        </g>
    </g>
</svg>