<?xml version="1.0" encoding="UTF-8"?>
<svg width="33px" height="33px" viewBox="0 0 33 33" version="1.1" xmlns="http://www.w3.org/2000/svg" xmlns:xlink="http://www.w3.org/1999/xlink">
    <title>Group 5</title>
    <g id="Page-1" stroke="none" stroke-width="1" fill="none" fill-rule="evenodd">
        <g id="Group-5">
            <g id="Group-2-Copy-36" fill="#303030">
                <circle id="Oval" cx="16.5" cy="16.5" r="16.5"></circle>
            </g>
            <g id="833940-copy-2" transform="translate(5.739130, 4.304348)" fill="#F4F4F4" fill-rule="nonzero">
                <path d="M13.2031061,2.00822326 C13.2327976,1.88554815 13.2488999,1.7576142 13.2488999,1.62586411 C13.2489464,0.729395699 12.5195973,0 11.6230358,0 C10.7265208,0 9.99717167,0.729395699 9.99717167,1.62586411 C9.99717167,1.75752112 10.0133205,1.88545507 10.0429654,2.00822326 C6.4918094,2.70332019 3.75339929,5.69457321 3.44252305,9.36719434 L2.59212762,9.36719434 L2.59212762,10.7639501 L5.62214709,10.7639501 C5.61525941,11.4984185 5.52660384,12.1701532 5.39494682,12.3619843 C4.85877839,13.1432702 4.54906561,13.8810894 4.3702187,14.4952561 L3.97394457,14.034061 L0.0335882632,17.4193077 L5.53935535,23.8276398 L9.47966512,20.4422999 L8.75687787,19.601026 L12.0874421,17.6701029 C13.6336325,16.7737742 14.9085974,15.4735389 15.7744901,13.9099897 L17.5167932,10.7639036 L20.6538974,10.7639036 L20.6538974,9.3671478 L19.8035485,9.3671478 C19.4926723,5.69461975 16.7542622,2.70332019 13.2031061,2.00822326 Z M11.6229892,1.39675577 C11.7492943,1.39675577 11.8521441,1.499559 11.8521441,1.62586411 C11.8521441,1.75216921 11.7493409,1.85501899 11.6229892,1.85501899 C11.4966376,1.85501899 11.3938809,1.75221575 11.3938809,1.62586411 C11.3938809,1.49951246 11.4966841,1.39675577 11.6229892,1.39675577 Z M5.68860387,21.8579502 L2.00337084,17.5685097 L3.82483567,16.0036574 L7.5100687,20.2930979 L5.68860387,21.8579502 Z M14.5526255,13.2332754 C13.8091752,14.5756744 12.7144999,15.6920831 11.3869001,16.4616879 L7.83095068,18.5232441 L5.53256075,15.8480331 C5.55959954,15.4190891 5.71494458,14.3642506 6.54663159,13.1522056 C6.93518035,12.5860665 7.01736709,11.5260623 7.02067131,10.7639036 L8.10878468,10.7639036 L8.10878468,11.6351947 C8.10878468,13.149041 9.34032927,14.3805856 10.8541756,14.3805856 C11.8242211,14.3805856 12.7316726,13.8607521 13.2224196,13.0239459 L14.5477389,10.7639036 L15.9201551,10.7639036 L14.5526255,13.2332754 Z M9.50558699,11.6351947 L9.50558699,10.7639036 L10.7385277,10.7639036 L9.79370597,12.4668817 C9.61350944,12.2375407 9.50558699,11.9488167 9.50558699,11.6351947 Z M11.1189323,12.9573495 L12.3358173,10.7639501 L12.9285298,10.7639501 L12.0175414,12.3174471 C11.8218942,12.6511271 11.4913322,12.8821435 11.1189323,12.9573495 Z M4.84486342,9.36719434 C5.19566957,5.93689844 8.10171085,3.25182129 11.6230823,3.25182129 C15.1444538,3.25182129 18.0504485,5.93694498 18.4013012,9.36719434 L4.84486342,9.36719434 Z" id="Shape"></path>
            </g>
        </g>
    </g>
</svg>