<?xml version="1.0" encoding="UTF-8"?>
<svg width="33px" height="33px" viewBox="0 0 33 33" version="1.1" xmlns="http://www.w3.org/2000/svg" xmlns:xlink="http://www.w3.org/1999/xlink">
    <title>Group 20</title>
    <g id="Page-1" stroke="none" stroke-width="1" fill="none" fill-rule="evenodd">
        <g id="Group-20">
            <g id="Group-2-Copy-35" fill="#303030">
                <circle id="Oval" cx="16.5" cy="16.5" r="16.5"></circle>
            </g>
            <g id="3190429-copy" transform="translate(7.891304, 4.663043)" fill="#F4F4F4" fill-rule="nonzero">
                <path d="M16.4988131,6.59367008 L13.890665,6.59367008 L13.890665,3.51662404 C13.890665,1.57755754 12.3131074,0 10.3740409,0 L10.1542519,0 C9.60280131,0 9.08075847,0.127917199 8.6157289,0.35513507 C8.15069933,0.127917199 7.62865649,0 7.07720588,0 C5.13813939,0 3.56058184,1.57755754 3.56058184,3.51662404 L3.56058184,6.59367008 L0.732644661,6.59367008 L0.0133192135,20.923913 L17.2181825,20.923913 L16.4988131,6.59367008 Z M10.3452925,1.26558903 C11.5572091,1.26558903 12.5719309,2.30470748 12.5719309,3.51662404 L12.5719309,6.59367008 L10.5938299,6.59367008 L10.5938299,3.51662404 C10.5938299,2.69601982 10.3105219,1.94078085 9.83762388,1.34185582 C9.83762388,1.34185582 9.91033008,1.26558903 10.3452925,1.26558903 Z M8.6157289,1.94900096 C9.0222946,2.34809383 9.27509591,2.90328085 9.27509591,3.51662404 L9.27509591,6.59367008 L7.95636189,6.59367008 L7.95636189,3.51662404 C7.95636189,2.90328085 8.2091632,2.34809383 8.6157289,1.94900096 Z M4.87931586,3.51662404 C4.87931586,2.30470748 5.86528932,1.31873402 7.07720588,1.31873402 C7.18472666,1.31873402 7.29035726,1.32686621 7.39383392,1.34185582 C6.9209359,1.94078085 6.63762788,2.69601982 6.63762788,3.51662404 L6.63762788,6.59367008 L4.87931586,6.59367008 L4.87931586,3.51662404 Z M1.99273897,7.91240409 L3.56058184,7.91240409 L3.56058184,19.605179 L1.3933304,19.605179 L1.99273897,7.91240409 Z M4.87931586,19.605179 L4.87931586,7.91240409 L6.63762788,7.91240409 L6.63762788,9.23113811 L7.95636189,9.23113811 L7.95636189,7.91240409 L12.5719309,7.91240409 L12.5719309,9.23113811 L13.890665,9.23113811 L13.890665,7.91240409 L15.2387188,7.91240409 L15.8381274,19.605179 L4.87931586,19.605179 Z" id="Shape"></path>
            </g>
        </g>
    </g>
</svg>