<?xml version="1.0" encoding="UTF-8"?>
<svg width="33px" height="33px" viewBox="0 0 33 33" version="1.1" xmlns="http://www.w3.org/2000/svg" xmlns:xlink="http://www.w3.org/1999/xlink">
    <title>Group 16</title>
    <g id="Page-1" stroke="none" stroke-width="1" fill="none" fill-rule="evenodd">
        <g id="Group-16">
            <g id="Group-2-Copy-34" fill="#303030">
                <circle id="Oval" cx="16.5" cy="16.5" r="16.5"></circle>
            </g>
            <g id="3761561-copy-2" transform="translate(5.021739, 6.815217)" fill="#F4F4F4" fill-rule="nonzero">
                <path d="M18.4719713,7.27127983 C17.9284787,7.27127983 17.4052257,7.35919843 16.9153085,7.52111517 L15.2213645,4.07553053 L16.8283057,4.07553053 C17.9518779,4.07553053 18.8660023,3.16140611 18.8660023,2.03783395 C18.8660023,0.914261795 17.9518779,0.000137372803 16.8283057,0.000137372803 L15.8609722,0.000137372803 L15.8609722,1.3738654 L16.8283057,1.3738654 C17.1944043,1.3738654 17.4922743,1.67173543 17.4922743,2.03783395 C17.4922743,2.40393247 17.1944043,2.7018025 16.8283057,2.7018025 L13.4989843,2.7018025 L13.4989843,3.68575809 L13.9518566,4.60688853 L8.89882701,4.60688853 L8.89882701,3.92080296 C8.89882701,2.77772387 7.96885893,1.84775578 6.82582562,1.84775578 L3.92290934,1.84775578 L3.92290934,4.60693432 L2.48809621,4.60693432 L2.48809621,5.98066235 L5.65339454,5.98066235 L5.11177937,7.27425624 C5.06562211,7.2729741 5.01951064,7.27127983 4.97307863,7.27127983 C2.23093432,7.27127983 2.60291326e-15,9.50216836 2.60291326e-15,12.2443127 C2.60291326e-15,14.986457 2.23093432,17.2173913 4.97307863,17.2173913 C6.97826364,17.2173913 8.70938992,16.0240796 9.4953913,14.3106286 L11.2456582,14.3106286 L11.2456582,10.5057683 L14.755167,6.24080065 L15.6833492,8.12876087 C14.3660356,9.02424838 13.4990301,10.5348455 13.4990301,12.2442669 C13.4990301,14.9864112 15.7299186,17.2173913 18.4720629,17.2173913 C21.2142072,17.2173913 23.4451415,14.9864112 23.4451415,12.2442669 C23.4451415,9.50212257 21.2141156,7.27127983 18.4719713,7.27127983 Z M5.29663737,4.60688853 L5.29663737,3.22143802 L6.82582562,3.22143802 C7.21143108,3.22143802 7.52509898,3.5351975 7.52509898,3.92075717 L7.52509898,4.60684274 L5.29663737,4.60684274 L5.29663737,4.60688853 Z M7.1426531,5.98061656 L13.1901244,5.98061656 L9.73625162,10.177951 L9.49511656,10.177951 C8.9180592,8.9201198 7.83171508,7.943216 6.50125948,7.51246068 L7.1426531,5.98061656 Z M4.97307863,15.8436175 C2.98840796,15.8436175 1.37372803,14.2289376 1.37372803,12.2443127 C1.37372803,10.2596878 2.98840796,8.64500786 4.97307863,8.64500786 C6.18937743,8.64500786 7.26651758,9.25155458 7.91835153,10.1779968 L3.92290934,10.1779968 L3.92290934,14.3106286 L7.91738992,14.3106286 C7.26564755,15.2368876 6.18919426,15.8436175 4.97307863,15.8436175 Z M9.87188437,12.9369006 L5.29663737,12.9369006 L5.29663737,11.5517248 L9.87188437,11.5517248 L9.87188437,12.9369006 Z M18.4719713,15.8436175 C16.4873006,15.8436175 14.8726665,14.2289376 14.8726665,12.2442669 C14.8726665,11.0760028 15.4325065,10.0363654 16.2976346,9.37839547 L17.8555796,12.5473113 L19.0883631,11.9412225 L17.5297771,8.77093293 C17.830303,8.68933349 18.1459857,8.64496207 18.4719713,8.64496207 C20.456642,8.64496207 22.0713219,10.2595962 22.0713219,12.2442669 C22.0713219,14.2289376 20.456642,15.8436175 18.4719713,15.8436175 L18.4719713,15.8436175 Z" id="Shape"></path>
            </g>
        </g>
    </g>
</svg>