<?xml version="1.0" encoding="UTF-8"?>
<svg width="33px" height="33px" viewBox="0 0 33 33" version="1.1" xmlns="http://www.w3.org/2000/svg" xmlns:xlink="http://www.w3.org/1999/xlink">
    <title>Group 15</title>
    <g id="Page-1" stroke="none" stroke-width="1" fill="none" fill-rule="evenodd">
        <g id="Group-15">
            <g id="Group-2-Copy-31" fill="#303030">
                <circle id="Oval" cx="16.5" cy="16.5" r="16.5"></circle>
            </g>
            <g id="831953-copy" transform="translate(8.608696, 5.021739)" fill="#F4F4F4" fill-rule="nonzero">
                <path d="M7.89130435,0 C6.22101873,0 4.86209565,1.35888261 4.86209565,3.0292087 C4.86209565,4.69949431 6.22097826,6.05841739 7.89130435,6.05841739 C9.56158997,6.05841739 10.920513,4.69953478 10.920513,3.0292087 C10.920513,1.35888261 9.56158997,0 7.89130435,0 Z M7.89130435,4.84671773 C6.8891087,4.84671773 6.07379532,4.03136388 6.07379532,3.0292087 C6.07379532,2.02701304 6.88914916,1.21169967 7.89130435,1.21169967 C8.89345953,1.21169967 9.70881338,2.02705351 9.70881338,3.0292087 C9.70881338,4.03136388 8.8935,4.84671773 7.89130435,4.84671773 Z" id="Shape"></path>
                <path d="M14.7280472,15.8119077 C14.2897763,15.4632334 13.7676552,15.2622278 13.2257856,15.2212334 L12.1322127,14.127701 L12.1322127,13.7727946 L13.1419355,13.7727946 C14.1441311,13.7727946 14.9594445,12.9574408 14.9594445,11.9552856 L14.9594445,9.9937097 C14.9594445,8.8597495 14.3375288,7.83161371 13.3363853,7.31058528 C12.2743371,6.75782977 10.4675522,6.09888562 7.89130435,6.09888562 C5.31505652,6.09888562 3.5082311,6.7577893 2.44622341,7.31058528 C1.44507993,7.83165418 0.823164214,8.8597495 0.823164214,9.9937097 L0.823164214,11.9552856 C0.823164214,12.9574813 1.63851806,13.7727946 2.64067324,13.7727946 L3.65039599,13.7727946 L3.65039599,14.127701 L2.55690401,15.221193 C2.01495351,15.2621873 1.49287291,15.4632334 1.05452107,15.8119077 C0.394160535,16.3372662 0.0153779264,17.1226331 0.0153779264,17.9665171 C0.0153779264,19.4846421 1.25046823,20.7197324 2.76859331,20.7197324 L13.0139749,20.7197324 C14.5321,20.7197324 15.7671903,19.4846421 15.7671903,17.9665171 C15.7671903,17.1226331 15.3884482,16.3372662 14.7280472,15.8119077 Z M2.64067324,12.561095 C2.30660803,12.561095 2.03482341,12.2893104 2.03482341,11.9552452 L2.03482341,9.99366923 C2.03482341,9.31327692 2.40680736,8.69702676 3.00561572,8.38534047 C3.82857759,7.95698428 5.1632602,7.45679699 7.04179532,7.33721338 L6.20584314,9.84494849 L3.68584615,10.5649592 L4.01873779,11.7300395 L7.15324482,10.8344776 L7.89118294,8.62054181 L8.62912107,10.8344776 L11.7636281,11.7300395 L12.0965197,10.5649592 L9.57652274,9.84494849 L8.74057057,7.33721338 C10.6191057,7.45679699 11.9537883,7.95698428 12.7767502,8.38534047 C13.3755585,8.69702676 13.7475425,9.31327692 13.7475425,9.99366923 L13.7475425,11.9552452 C13.7475425,12.2893104 13.4757579,12.561095 13.1416926,12.561095 L10.7188194,12.561095 C9.81249298,12.561095 8.96039398,12.2081311 8.31949866,11.5672763 L7.89130435,11.1388391 L7.46294816,11.5672358 C6.82201237,12.2080906 5.96995385,12.561095 5.06358696,12.561095 L2.64067324,12.561095 L2.64067324,12.561095 Z M11.7285826,15.4375766 L7.89130435,16.3231428 L4.05402609,15.4376171 L4.86209565,14.629588 L4.86209565,13.7727542 L5.06354649,13.7727542 C6.10111137,13.7727542 7.08631037,13.4318903 7.89126388,12.8031759 C8.69621739,13.4319308 9.68141639,13.7727542 10.7190217,13.7727542 L10.9204726,13.7727542 L10.9204726,14.6295475 L11.7285826,15.4375766 Z M9.77275318,19.5080328 L2.76859331,19.5080328 C1.91859866,19.5080328 1.22703712,18.8164712 1.22703712,17.9664766 C1.22703712,17.4939696 1.4391311,17.0542823 1.8088893,16.7601187 C2.08536823,16.5402144 2.42121405,16.4244348 2.76563913,16.4244348 C2.88182341,16.4244348 9.94004883,18.0393599 9.94004883,18.0393599 C10.2795368,18.1177064 10.5165997,18.4157548 10.5165997,18.7641458 C10.5165997,19.1743722 10.1828987,19.5080328 9.77275318,19.5080328 Z M13.0140154,19.5080328 L11.5809545,19.5080328 C11.6756906,19.2785779 11.7282993,19.0274726 11.7282993,18.7641863 C11.7282993,17.9595565 11.2471726,17.2572709 10.5252599,16.9587773 L12.667405,16.4644579 C13.127812,16.3582692 13.6039612,16.4659957 13.9737194,16.7601592 C14.3434776,17.0543227 14.5555716,17.4940505 14.5555716,17.9665575 C14.5555311,18.8165117 13.86401,19.5080328 13.0140154,19.5080328 Z" id="Shape"></path>
            </g>
        </g>
    </g>
</svg>